<svg xmlns="http://www.w3.org/2000/svg" width="24" height="25" fill="none" viewBox="0 0 24 25"><g id="icons/notification/ic_chat"><g id="chat"><path id="Path" fill="url(#paint0_linear_0_8824)" d="M15.9549 7.28172C20.3371 7.21478 23.9139 10.6639 23.9987 15.0458C24.0112 15.6892 23.9469 16.3154 23.8144 16.916C23.59 17.9331 23.4567 18.968 23.4567 20.0095V22.0227C23.4567 22.3312 23.2067 22.5812 22.8982 22.5812H20.885C19.8435 22.5812 18.8086 22.7146 17.7915 22.9389C17.1909 23.0714 16.5647 23.1357 15.9213 23.1232C11.5395 23.0384 8.09036 19.4618 8.15721 15.0796C8.22241 10.8023 11.6776 7.34706 15.9549 7.28172Z"/><path id="Path_2" fill="url(#paint1_linear_0_8824)" fill-rule="evenodd" d="M15.9549 7.28172C20.3371 7.21478 23.9139 10.6639 23.9987 15.0458C24.0112 15.6892 23.9469 16.3154 23.8144 16.916C23.59 17.9331 23.4567 18.968 23.4567 20.0095V22.0227C23.4567 22.3312 23.2067 22.5812 22.8982 22.5812H20.885C19.8435 22.5812 18.8086 22.7146 17.7915 22.9389C17.1909 23.0714 16.5647 23.1357 15.9213 23.1232C11.5395 23.0384 8.09036 19.4618 8.15721 15.0796C8.22241 10.8023 11.6776 7.34706 15.9549 7.28172Z" clip-rule="evenodd"/><path id="Path_3" fill="url(#paint2_linear_0_8824)" fill-rule="evenodd" d="M9.80149 0.052437C4.4627 -0.0291255 0.105251 4.1728 0.00184497 9.5112C-0.0132957 10.2949 0.0650325 11.0579 0.22647 11.7896C0.499751 13.0286 0.66222 14.2895 0.66222 15.5584V18.011C0.66222 18.3867 0.966814 18.6913 1.34261 18.6913H3.7952C5.06402 18.6913 6.32491 18.8538 7.56395 19.1271C8.29567 19.2885 9.05861 19.3669 9.84231 19.3517C15.1806 19.2483 19.3825 14.891 19.3012 9.55231C19.2217 4.34136 15.0124 0.131984 9.80149 0.052437Z" clip-rule="evenodd"/><path id="Path_4" fill="#0C53B7" fill-rule="evenodd" d="M6.19693 9.18499C5.9243 8.8953 5.53843 8.71338 5.10915 8.71338C4.28354 8.71338 3.61426 9.38266 3.61426 10.2083C3.61426 10.6375 3.79613 11.0234 4.08587 11.2961L7.31059 14.5208C7.58326 14.8105 7.96913 14.9924 8.39837 14.9924C9.22398 14.9924 9.89326 14.3231 9.89326 13.4975C9.89326 13.0683 9.71134 12.6824 9.42165 12.4097L6.19693 9.18499Z" clip-rule="evenodd"/><path id="Path_5" fill="#0C53B7" fill-rule="evenodd" d="M10.4245 9.18499C10.1518 8.8953 9.76597 8.71338 9.33669 8.71338C8.51108 8.71338 7.8418 9.38266 7.8418 10.2083C7.8418 10.6375 8.02367 11.0234 8.31341 11.2961L11.5381 14.5208C11.8108 14.8105 12.1967 14.9924 12.6259 14.9924C13.4515 14.9924 14.1208 14.3231 14.1208 13.4975C14.1208 13.0683 13.9389 12.6824 13.6492 12.4097L10.4245 9.18499Z" clip-rule="evenodd"/><path id="Path_6" fill="#0C53B7" fill-rule="evenodd" d="M14.652 9.18499C14.3794 8.8953 13.9935 8.71338 13.5642 8.71338C12.7386 8.71338 12.0693 9.38266 12.0693 10.2083C12.0693 10.6375 12.2513 11.0234 12.5409 11.2961L15.7657 14.5208C16.0383 14.8105 16.4242 14.9924 16.8534 14.9924C17.6791 14.9924 18.3483 14.3231 18.3483 13.4975C18.3483 13.0683 18.1664 12.6824 17.8767 12.4097L14.652 9.18499Z" clip-rule="evenodd"/><circle id="Oval" cx="5.109" cy="10.208" r="1.495" fill="#fff"/><circle id="Oval_2" cx="9.337" cy="10.208" r="1.495" fill="#fff"/><circle id="Oval_3" cx="13.564" cy="10.208" r="1.495" fill="#fff"/></g></g><defs><linearGradient id="paint0_linear_0_8824" x1="8.664" x2="20.294" y1="19.419" y2="31.05" gradientUnits="userSpaceOnUse"><stop stop-color="#A7F3CE"/><stop offset="1" stop-color="#61DB99"/></linearGradient><linearGradient id="paint1_linear_0_8824" x1=".234" x2="16.078" y1="15.203" y2="31.047" gradientUnits="userSpaceOnUse"><stop stop-color="#5BE584"/><stop offset="1" stop-color="#00AB55"/></linearGradient><linearGradient id="paint2_linear_0_8824" x1="-9.651" x2="9.651" y1="9.702" y2="29.005" gradientUnits="userSpaceOnUse"><stop stop-color="#74CAFF"/><stop offset="1" stop-color="#0C53B7"/></linearGradient></defs></svg>